<mxfile host="6f59d1a9-9b48-4a0f-9ff2-a0caf22a21a5" modified="2020-10-04T21:27:36.867Z" agent="5.0 (X11; Linux x86_64) AppleWebKit/537.36 (KHTML, like Gecko) Code/1.49.3 Chrome/83.0.4103.122 Electron/9.2.1 Safari/537.36" etag="Moxfm7CBxNKBfipqnYTU" version="13.1.3">
    <diagram id="6hGFLwfOUW9BJ-s0fimq" name="Page-1">
        <mxGraphModel dx="1095" dy="626" grid="1" gridSize="10" guides="1" tooltips="1" connect="1" arrows="1" fold="1" page="1" pageScale="1" pageWidth="827" pageHeight="1169" math="0" shadow="0">
            <root>
                <mxCell id="0"/>
                <mxCell id="1" parent="0"/>
                <mxCell id="73" value="&lt;b&gt;DB&lt;/b&gt;" style="shape=datastore;whiteSpace=wrap;html=1;fontFamily=Helvetica;fontSize=12;fontColor=#f0f0f0;align=center;strokeColor=#f0f0f0;fillColor=#2a2a2a;" parent="1" vertex="1">
                    <mxGeometry x="414" y="820" width="80" height="50" as="geometry"/>
                </mxCell>
                <mxCell id="184" style="edgeStyle=orthogonalEdgeStyle;rounded=0;orthogonalLoop=1;jettySize=auto;html=1;entryX=0;entryY=0.5;entryDx=0;entryDy=0;" edge="1" parent="1" source="75" target="73">
                    <mxGeometry relative="1" as="geometry">
                        <Array as="points">
                            <mxPoint x="382" y="880"/>
                            <mxPoint x="382" y="845"/>
                        </Array>
                    </mxGeometry>
                </mxCell>
                <mxCell id="186" style="edgeStyle=orthogonalEdgeStyle;rounded=0;orthogonalLoop=1;jettySize=auto;html=1;entryX=0.355;entryY=-0.036;entryDx=0;entryDy=0;entryPerimeter=0;" edge="1" parent="1" source="75" target="79">
                    <mxGeometry relative="1" as="geometry"/>
                </mxCell>
                <mxCell id="75" value="WORKER" style="shape=parallelogram;perimeter=parallelogramPerimeter;whiteSpace=wrap;html=1;" parent="1" vertex="1">
                    <mxGeometry x="260" y="860" width="90" height="50" as="geometry"/>
                </mxCell>
                <mxCell id="183" style="edgeStyle=orthogonalEdgeStyle;rounded=0;orthogonalLoop=1;jettySize=auto;html=1;entryX=1;entryY=0.5;entryDx=0;entryDy=0;" edge="1" parent="1" source="77" target="73">
                    <mxGeometry relative="1" as="geometry">
                        <Array as="points">
                            <mxPoint x="505" y="880"/>
                            <mxPoint x="505" y="845"/>
                        </Array>
                    </mxGeometry>
                </mxCell>
                <mxCell id="185" style="edgeStyle=orthogonalEdgeStyle;rounded=0;orthogonalLoop=1;jettySize=auto;html=1;entryX=0.75;entryY=0;entryDx=0;entryDy=0;" edge="1" parent="1" source="77" target="79">
                    <mxGeometry relative="1" as="geometry"/>
                </mxCell>
                <mxCell id="77" value="WORKER" style="shape=parallelogram;perimeter=parallelogramPerimeter;whiteSpace=wrap;html=1;" parent="1" vertex="1">
                    <mxGeometry x="525" y="860" width="90" height="50" as="geometry"/>
                </mxCell>
                <mxCell id="179" style="edgeStyle=orthogonalEdgeStyle;rounded=0;orthogonalLoop=1;jettySize=auto;html=1;" edge="1" parent="1" source="79" target="80">
                    <mxGeometry relative="1" as="geometry">
                        <mxPoint x="220" y="760" as="targetPoint"/>
                        <Array as="points">
                            <mxPoint x="220" y="995"/>
                        </Array>
                    </mxGeometry>
                </mxCell>
                <mxCell id="181" style="edgeStyle=orthogonalEdgeStyle;rounded=0;orthogonalLoop=1;jettySize=auto;html=1;entryX=0.635;entryY=1.058;entryDx=0;entryDy=0;entryPerimeter=0;" edge="1" parent="1" source="79" target="81">
                    <mxGeometry relative="1" as="geometry"/>
                </mxCell>
                <mxCell id="79" value="CACHE" style="shape=dataStorage;whiteSpace=wrap;html=1;fontFamily=Helvetica;fontSize=12;fontColor=#f0f0f0;align=center;strokeColor=#f0f0f0;fillColor=#2a2a2a;size=0.11235955056179775;" parent="1" vertex="1">
                    <mxGeometry x="411" y="970" width="89" height="50" as="geometry"/>
                </mxCell>
                <mxCell id="161" style="edgeStyle=orthogonalEdgeStyle;rounded=0;orthogonalLoop=1;jettySize=auto;html=1;" parent="1" source="80" edge="1">
                    <mxGeometry relative="1" as="geometry">
                        <mxPoint x="90" y="630" as="targetPoint"/>
                    </mxGeometry>
                </mxCell>
                <mxCell id="170" style="edgeStyle=orthogonalEdgeStyle;rounded=0;orthogonalLoop=1;jettySize=auto;html=1;" parent="1" source="80" target="75" edge="1">
                    <mxGeometry relative="1" as="geometry">
                        <Array as="points">
                            <mxPoint x="250" y="804"/>
                            <mxPoint x="305" y="804"/>
                        </Array>
                    </mxGeometry>
                </mxCell>
                <mxCell id="178" style="edgeStyle=orthogonalEdgeStyle;rounded=0;orthogonalLoop=1;jettySize=auto;html=1;entryX=0;entryY=0.25;entryDx=0;entryDy=0;" edge="1" parent="1" source="80" target="79">
                    <mxGeometry relative="1" as="geometry">
                        <Array as="points">
                            <mxPoint x="240" y="983"/>
                        </Array>
                    </mxGeometry>
                </mxCell>
                <mxCell id="80" value="CRM&lt;br&gt;TIM/CLIENT" style="rounded=1;whiteSpace=wrap;html=1;fontFamily=Helvetica;fontSize=12;fontColor=#f0f0f0;align=center;strokeColor=#f0f0f0;fillColor=#2a2a2a;" parent="1" vertex="1">
                    <mxGeometry x="190" y="669" width="80" height="80" as="geometry"/>
                </mxCell>
                <mxCell id="153" style="edgeStyle=orthogonalEdgeStyle;rounded=0;orthogonalLoop=1;jettySize=auto;html=1;" parent="1" source="81" edge="1">
                    <mxGeometry relative="1" as="geometry">
                        <mxPoint x="540" y="670" as="targetPoint"/>
                    </mxGeometry>
                </mxCell>
                <mxCell id="169" style="edgeStyle=orthogonalEdgeStyle;rounded=0;orthogonalLoop=1;jettySize=auto;html=1;entryX=0.5;entryY=0;entryDx=0;entryDy=0;" parent="1" source="81" target="77" edge="1">
                    <mxGeometry relative="1" as="geometry">
                        <Array as="points">
                            <mxPoint x="630" y="805"/>
                            <mxPoint x="570" y="805"/>
                        </Array>
                    </mxGeometry>
                </mxCell>
                <mxCell id="176" style="edgeStyle=orthogonalEdgeStyle;rounded=0;orthogonalLoop=1;jettySize=auto;html=1;entryX=1;entryY=0.25;entryDx=0;entryDy=0;" edge="1" parent="1" source="81" target="79">
                    <mxGeometry relative="1" as="geometry">
                        <Array as="points">
                            <mxPoint x="640" y="983"/>
                        </Array>
                    </mxGeometry>
                </mxCell>
                <mxCell id="81" value="WISHLIST" style="rounded=1;whiteSpace=wrap;html=1;fontFamily=Helvetica;fontSize=12;fontColor=#f0f0f0;align=center;strokeColor=#f0f0f0;fillColor=#2a2a2a;" parent="1" vertex="1">
                    <mxGeometry x="615" y="670" width="80" height="80" as="geometry"/>
                </mxCell>
                <mxCell id="103" value="" style="group" parent="1" vertex="1" connectable="0">
                    <mxGeometry x="70" y="70" width="710" height="381" as="geometry"/>
                </mxCell>
                <mxCell id="9" value="&lt;b&gt;&lt;u&gt;BAJIGUR CLOTH &lt;br&gt;NEW FEATURE&lt;br&gt;&lt;/u&gt;&lt;/b&gt;" style="text;html=1;align=center;verticalAlign=middle;resizable=0;points=[];autosize=1;" parent="103" vertex="1">
                    <mxGeometry x="567" width="110" height="30" as="geometry"/>
                </mxCell>
                <mxCell id="19" value="&lt;b&gt;CRM&lt;br&gt;&lt;/b&gt;" style="rounded=1;whiteSpace=wrap;html=1;fontFamily=Helvetica;fontSize=12;fontColor=#f0f0f0;align=center;strokeColor=#f0f0f0;fillColor=#2a2a2a;" parent="103" vertex="1">
                    <mxGeometry x="360" y="79" width="80" height="80" as="geometry"/>
                </mxCell>
                <mxCell id="87" style="edgeStyle=orthogonalEdgeStyle;rounded=0;orthogonalLoop=1;jettySize=auto;html=1;" parent="103" source="22" edge="1">
                    <mxGeometry relative="1" as="geometry">
                        <mxPoint x="150" y="259" as="targetPoint"/>
                    </mxGeometry>
                </mxCell>
                <mxCell id="93" style="edgeStyle=orthogonalEdgeStyle;rounded=0;orthogonalLoop=1;jettySize=auto;html=1;entryX=0;entryY=0.25;entryDx=0;entryDy=0;" parent="103" source="22" target="19" edge="1">
                    <mxGeometry relative="1" as="geometry"/>
                </mxCell>
                <mxCell id="22" value="&lt;b&gt;Process&lt;/b&gt;" style="shape=process;whiteSpace=wrap;html=1;backgroundOutline=1;fontFamily=Helvetica;fontSize=12;fontColor=#f0f0f0;align=center;strokeColor=#f0f0f0;fillColor=#2a2a2a;" parent="103" vertex="1">
                    <mxGeometry x="230" y="239" width="70" height="40" as="geometry"/>
                </mxCell>
                <mxCell id="49" value="" style="group" parent="103" vertex="1" connectable="0">
                    <mxGeometry x="562" y="56" width="90" height="126" as="geometry"/>
                </mxCell>
                <mxCell id="4" value="&lt;span style=&quot;font-size: 11px&quot;&gt;&lt;b&gt;TIM&lt;br&gt;&lt;/b&gt;&lt;/span&gt;" style="shape=actor;whiteSpace=wrap;html=1;fontFamily=Helvetica;fontSize=12;fontColor=#f0f0f0;align=center;strokeColor=#f0f0f0;fillColor=#2a2a2a;" parent="49" vertex="1">
                    <mxGeometry x="25.615384615384613" y="31.5" width="62.30769230769231" height="63" as="geometry"/>
                </mxCell>
                <mxCell id="92" style="edgeStyle=orthogonalEdgeStyle;rounded=0;orthogonalLoop=1;jettySize=auto;html=1;entryX=0.5;entryY=1;entryDx=0;entryDy=0;" parent="103" source="55" target="22" edge="1">
                    <mxGeometry relative="1" as="geometry"/>
                </mxCell>
                <mxCell id="55" value="&lt;b&gt;WISHLIST&lt;/b&gt;" style="rounded=1;whiteSpace=wrap;html=1;fontFamily=Helvetica;fontSize=12;fontColor=#f0f0f0;align=center;strokeColor=#f0f0f0;fillColor=#2a2a2a;" parent="103" vertex="1">
                    <mxGeometry x="410" y="301" width="80" height="80" as="geometry"/>
                </mxCell>
                <mxCell id="62" value="" style="group" parent="103" vertex="1" connectable="0">
                    <mxGeometry x="570" y="221" width="140" height="139" as="geometry"/>
                </mxCell>
                <mxCell id="5" value="&lt;font size=&quot;1&quot;&gt;&lt;b&gt;CLIENT&lt;/b&gt;&lt;/font&gt;" style="ellipse;shape=cloud;whiteSpace=wrap;html=1;fontFamily=Helvetica;fontSize=12;fontColor=#f0f0f0;align=center;strokeColor=#f0f0f0;fillColor=#2a2a2a;" parent="62" vertex="1">
                    <mxGeometry y="44" width="120" height="66" as="geometry"/>
                </mxCell>
                <mxCell id="59" value="$ $ $ $" style="text;html=1;strokeColor=none;fillColor=none;align=center;verticalAlign=middle;whiteSpace=wrap;rounded=0;" parent="62" vertex="1">
                    <mxGeometry x="20" y="43" width="80" height="44" as="geometry"/>
                </mxCell>
                <mxCell id="69" value="" style="group" parent="103" vertex="1" connectable="0">
                    <mxGeometry y="169" width="140" height="160" as="geometry"/>
                </mxCell>
                <mxCell id="66" value="" style="shape=internalStorage;whiteSpace=wrap;html=1;backgroundOutline=1;" parent="69" vertex="1">
                    <mxGeometry width="140" height="160" as="geometry"/>
                </mxCell>
                <mxCell id="3" value="&lt;b&gt;DATA CENTER&amp;nbsp;&lt;br&gt;&lt;/b&gt;" style="shape=datastore;whiteSpace=wrap;html=1;fontFamily=Helvetica;fontSize=12;fontColor=#f0f0f0;align=center;strokeColor=#f0f0f0;fillColor=#2a2a2a;" parent="69" vertex="1">
                    <mxGeometry x="50" y="40" width="70" height="100" as="geometry"/>
                </mxCell>
                <mxCell id="89" style="edgeStyle=orthogonalEdgeStyle;rounded=0;orthogonalLoop=1;jettySize=auto;html=1;entryX=0.5;entryY=0;entryDx=0;entryDy=0;" parent="103" source="19" target="55" edge="1">
                    <mxGeometry relative="1" as="geometry"/>
                </mxCell>
                <mxCell id="84" style="edgeStyle=orthogonalEdgeStyle;rounded=0;orthogonalLoop=1;jettySize=auto;html=1;entryX=1;entryY=0.5;entryDx=0;entryDy=0;" parent="103" source="4" target="19" edge="1">
                    <mxGeometry relative="1" as="geometry"/>
                </mxCell>
                <mxCell id="91" style="edgeStyle=orthogonalEdgeStyle;rounded=0;orthogonalLoop=1;jettySize=auto;html=1;" parent="103" source="5" target="55" edge="1">
                    <mxGeometry relative="1" as="geometry"/>
                </mxCell>
                <mxCell id="99" style="edgeStyle=orthogonalEdgeStyle;rounded=0;orthogonalLoop=1;jettySize=auto;html=1;entryX=0.5;entryY=0;entryDx=0;entryDy=0;" parent="103" source="94" target="19" edge="1">
                    <mxGeometry relative="1" as="geometry"/>
                </mxCell>
                <mxCell id="94" value="&lt;div style=&quot;text-align: justify&quot;&gt;&lt;span style=&quot;font-size: 9px&quot;&gt;TO DO&lt;br&gt;- WishList&lt;/span&gt;&lt;/div&gt;&lt;div style=&quot;text-align: justify&quot;&gt;&lt;span style=&quot;font-size: 9px&quot;&gt;- Email&amp;nbsp;&lt;/span&gt;&lt;span style=&quot;font-size: 9px&quot;&gt;marketing&lt;/span&gt;&lt;/div&gt;&lt;font style=&quot;font-size: 9px&quot;&gt;&lt;div style=&quot;text-align: justify&quot;&gt;&lt;span&gt;- Discount&lt;/span&gt;&lt;/div&gt;&lt;div style=&quot;text-align: justify&quot;&gt;&lt;span&gt;- Loyalitas Member&lt;/span&gt;&lt;/div&gt;&lt;div style=&quot;text-align: justify&quot;&gt;&lt;span&gt;- Giveaway&lt;/span&gt;&lt;/div&gt;&lt;/font&gt;" style="shape=card;whiteSpace=wrap;html=1;" parent="103" vertex="1">
                    <mxGeometry x="213.5" width="108.5" height="101" as="geometry"/>
                </mxCell>
                <mxCell id="154" style="edgeStyle=orthogonalEdgeStyle;rounded=0;orthogonalLoop=1;jettySize=auto;html=1;entryX=0.5;entryY=0;entryDx=0;entryDy=0;" parent="1" source="117" target="81" edge="1">
                    <mxGeometry relative="1" as="geometry"/>
                </mxCell>
                <mxCell id="117" value="CLIENT" style="swimlane;startSize=23;" parent="1" vertex="1">
                    <mxGeometry x="400" y="540" width="140" height="140" as="geometry"/>
                </mxCell>
                <mxCell id="162" style="edgeStyle=orthogonalEdgeStyle;rounded=0;orthogonalLoop=1;jettySize=auto;html=1;" parent="1" source="155" target="80" edge="1">
                    <mxGeometry relative="1" as="geometry"/>
                </mxCell>
                <mxCell id="155" value="ADMINISTRATOR" style="swimlane;" parent="1" vertex="1">
                    <mxGeometry x="70" y="500" width="140" height="130" as="geometry"/>
                </mxCell>
            </root>
        </mxGraphModel>
    </diagram>
</mxfile>